<svg xmlns="http://www.w3.org/2000/svg" viewBox="0 0 100 100" id="video">
    <path fill="none" stroke="#303c42" stroke-linecap="round" stroke-linejoin="round" d="M8.5 6.5h0c1.1 0 2 .9 2 2v3c0 1.1-.9 2-2 2h0c-1.1 0-2-.9-2-2v-3c0-1.1.9-2 2-2z"></path>
    <path fill="none" stroke="#303c42" stroke-linecap="round" stroke-linejoin="round" d="M10.5 11.5c-.6 0-1-.4-1-1s.4-1 1-1m5-3h0c1.1 0 2 .9 2 2v3c0 1.1-.9 2-2 2h0c-1.1 0-2-.9-2-2v-3c0-1.1.9-2 2-2z"></path>
    <path fill="none" stroke="#303c42" stroke-linecap="round" stroke-linejoin="round" d="M17.5 11.5c-.6 0-1-.4-1-1s.4-1 1-1"></path>
    <path fill="none" stroke="#303c42" stroke-linecap="round" stroke-linejoin="round" d="M2.5 23.5V10C2.5 4.8 6.8.5 12 .5h0c5.2 0 9.5 4.3 9.5 9.5v13.5c-1.6 0-1.6-2-3.2-2s-1.6 2-3.2 2-1.6-2-3.2-2-1.6 2-3.2 2-1.6-2-3.2-2-1.4 2-3 2z"></path>
</svg>
